<mxfile>
    <diagram id="BVZY3cTFJadJZ6djCOzS" name="Page-1">
        <mxGraphModel dx="1378" dy="1755" grid="1" gridSize="10" guides="1" tooltips="1" connect="1" arrows="1" fold="1" page="1" pageScale="1" pageWidth="850" pageHeight="1100" math="0" shadow="0">
            <root>
                <mxCell id="0"/>
                <mxCell id="1" parent="0"/>
                <mxCell id="11" style="edgeStyle=orthogonalEdgeStyle;rounded=0;orthogonalLoop=1;jettySize=auto;html=1;entryX=0;entryY=0.5;entryDx=0;entryDy=0;" edge="1" parent="1" source="2" target="10">
                    <mxGeometry relative="1" as="geometry">
                        <Array as="points">
                            <mxPoint x="255" y="260"/>
                            <mxPoint x="255" y="130"/>
                        </Array>
                    </mxGeometry>
                </mxCell>
                <mxCell id="12" style="edgeStyle=orthogonalEdgeStyle;rounded=0;orthogonalLoop=1;jettySize=auto;html=1;entryX=0;entryY=0.5;entryDx=0;entryDy=0;" edge="1" parent="1" source="2" target="9">
                    <mxGeometry relative="1" as="geometry">
                        <Array as="points">
                            <mxPoint x="260" y="270"/>
                            <mxPoint x="260" y="220"/>
                        </Array>
                    </mxGeometry>
                </mxCell>
                <mxCell id="13" style="edgeStyle=orthogonalEdgeStyle;rounded=0;orthogonalLoop=1;jettySize=auto;html=1;" edge="1" parent="1" source="2" target="8">
                    <mxGeometry relative="1" as="geometry">
                        <Array as="points">
                            <mxPoint x="255" y="280"/>
                            <mxPoint x="255" y="320"/>
                        </Array>
                    </mxGeometry>
                </mxCell>
                <mxCell id="14" style="edgeStyle=orthogonalEdgeStyle;rounded=0;orthogonalLoop=1;jettySize=auto;html=1;entryX=0;entryY=0.5;entryDx=0;entryDy=0;" edge="1" parent="1" source="2" target="7">
                    <mxGeometry relative="1" as="geometry">
                        <Array as="points">
                            <mxPoint x="250" y="290"/>
                            <mxPoint x="250" y="410"/>
                        </Array>
                    </mxGeometry>
                </mxCell>
                <mxCell id="15" style="edgeStyle=orthogonalEdgeStyle;rounded=0;orthogonalLoop=1;jettySize=auto;html=1;entryX=0;entryY=0.5;entryDx=0;entryDy=0;" edge="1" parent="1" source="2" target="6">
                    <mxGeometry relative="1" as="geometry">
                        <Array as="points">
                            <mxPoint x="240" y="300"/>
                            <mxPoint x="240" y="540"/>
                        </Array>
                    </mxGeometry>
                </mxCell>
                <mxCell id="16" style="edgeStyle=orthogonalEdgeStyle;rounded=0;orthogonalLoop=1;jettySize=auto;html=1;entryX=0;entryY=0.5;entryDx=0;entryDy=0;" edge="1" parent="1" source="2" target="5">
                    <mxGeometry relative="1" as="geometry">
                        <Array as="points">
                            <mxPoint x="230" y="310"/>
                            <mxPoint x="230" y="1330"/>
                        </Array>
                    </mxGeometry>
                </mxCell>
                <mxCell id="2" value="&lt;div style=&quot;background-color: rgb(255 , 255 , 255) ; font-family: &amp;#34;droid sans mono&amp;#34; , monospace , monospace , &amp;#34;droid sans fallback&amp;#34; ; font-size: 14px ; line-height: 19px&quot;&gt;&lt;span style=&quot;color: #a31515&quot;&gt;QmN...yhM&lt;/span&gt;&lt;/div&gt;" style="rounded=1;whiteSpace=wrap;html=1;" vertex="1" parent="1">
                    <mxGeometry x="85" y="250" width="120" height="60" as="geometry"/>
                </mxCell>
                <mxCell id="3" value="&lt;b&gt;Mother IPFS Hash&lt;/b&gt;" style="text;html=1;strokeColor=none;fillColor=none;align=center;verticalAlign=middle;whiteSpace=wrap;rounded=0;" vertex="1" parent="1">
                    <mxGeometry x="75" y="220" width="130" height="20" as="geometry"/>
                </mxCell>
                <mxCell id="37" style="edgeStyle=orthogonalEdgeStyle;rounded=0;orthogonalLoop=1;jettySize=auto;html=1;entryX=0;entryY=0.5;entryDx=0;entryDy=0;" edge="1" parent="1" source="5" target="36">
                    <mxGeometry relative="1" as="geometry"/>
                </mxCell>
                <mxCell id="5" value="&lt;div style=&quot;background-color: rgb(255 , 255 , 255) ; font-family: &amp;#34;droid sans mono&amp;#34; , monospace , monospace , &amp;#34;droid sans fallback&amp;#34; ; font-size: 14px ; line-height: 19px&quot;&gt;&lt;span style=&quot;color: #a31515&quot;&gt;QmN...yhM&lt;/span&gt;&lt;/div&gt;" style="rounded=1;whiteSpace=wrap;html=1;" vertex="1" parent="1">
                    <mxGeometry x="270" y="1300" width="120" height="60" as="geometry"/>
                </mxCell>
                <mxCell id="35" style="edgeStyle=orthogonalEdgeStyle;rounded=0;orthogonalLoop=1;jettySize=auto;html=1;entryX=0;entryY=0.5;entryDx=0;entryDy=0;" edge="1" parent="1" source="6" target="32">
                    <mxGeometry relative="1" as="geometry">
                        <Array as="points">
                            <mxPoint x="450" y="540"/>
                            <mxPoint x="450" y="1010"/>
                        </Array>
                    </mxGeometry>
                </mxCell>
                <mxCell id="6" value="&lt;div style=&quot;background-color: rgb(255 , 255 , 255) ; font-family: &amp;#34;droid sans mono&amp;#34; , monospace , monospace , &amp;#34;droid sans fallback&amp;#34; ; font-size: 14px ; line-height: 19px&quot;&gt;&lt;span style=&quot;color: #a31515&quot;&gt;QmN...yhM&lt;/span&gt;&lt;/div&gt;" style="rounded=1;whiteSpace=wrap;html=1;" vertex="1" parent="1">
                    <mxGeometry x="305" y="510" width="120" height="60" as="geometry"/>
                </mxCell>
                <mxCell id="34" style="edgeStyle=orthogonalEdgeStyle;rounded=0;orthogonalLoop=1;jettySize=auto;html=1;entryX=0;entryY=0.5;entryDx=0;entryDy=0;" edge="1" parent="1" source="7" target="31">
                    <mxGeometry relative="1" as="geometry">
                        <Array as="points">
                            <mxPoint x="460" y="410"/>
                            <mxPoint x="460" y="760"/>
                        </Array>
                    </mxGeometry>
                </mxCell>
                <mxCell id="7" value="&lt;div style=&quot;background-color: rgb(255 , 255 , 255) ; font-family: &amp;#34;droid sans mono&amp;#34; , monospace , monospace , &amp;#34;droid sans fallback&amp;#34; ; font-size: 14px ; line-height: 19px&quot;&gt;&lt;span style=&quot;color: #a31515&quot;&gt;QmN...yhM&lt;/span&gt;&lt;/div&gt;" style="rounded=1;whiteSpace=wrap;html=1;" vertex="1" parent="1">
                    <mxGeometry x="305" y="380" width="120" height="60" as="geometry"/>
                </mxCell>
                <mxCell id="33" style="edgeStyle=orthogonalEdgeStyle;rounded=0;orthogonalLoop=1;jettySize=auto;html=1;entryX=0;entryY=0.5;entryDx=0;entryDy=0;" edge="1" parent="1" source="8" target="30">
                    <mxGeometry relative="1" as="geometry">
                        <Array as="points">
                            <mxPoint x="470" y="320"/>
                            <mxPoint x="470" y="540"/>
                        </Array>
                    </mxGeometry>
                </mxCell>
                <mxCell id="8" value="&lt;div style=&quot;background-color: rgb(255 , 255 , 255) ; font-family: &amp;#34;droid sans mono&amp;#34; , monospace , monospace , &amp;#34;droid sans fallback&amp;#34; ; font-size: 14px ; line-height: 19px&quot;&gt;&lt;span style=&quot;color: #a31515&quot;&gt;QmN...yhM&lt;/span&gt;&lt;/div&gt;" style="rounded=1;whiteSpace=wrap;html=1;" vertex="1" parent="1">
                    <mxGeometry x="305" y="290" width="120" height="60" as="geometry"/>
                </mxCell>
                <mxCell id="29" style="edgeStyle=orthogonalEdgeStyle;rounded=0;orthogonalLoop=1;jettySize=auto;html=1;entryX=0;entryY=0.5;entryDx=0;entryDy=0;" edge="1" parent="1" source="9" target="28">
                    <mxGeometry relative="1" as="geometry"/>
                </mxCell>
                <mxCell id="9" value="&lt;div style=&quot;background-color: rgb(255 , 255 , 255) ; font-family: &amp;#34;droid sans mono&amp;#34; , monospace , monospace , &amp;#34;droid sans fallback&amp;#34; ; font-size: 14px ; line-height: 19px&quot;&gt;&lt;span style=&quot;color: #a31515&quot;&gt;QmN...yhM&lt;/span&gt;&lt;/div&gt;" style="rounded=1;whiteSpace=wrap;html=1;" vertex="1" parent="1">
                    <mxGeometry x="305" y="190" width="120" height="60" as="geometry"/>
                </mxCell>
                <mxCell id="25" style="edgeStyle=orthogonalEdgeStyle;rounded=0;orthogonalLoop=1;jettySize=auto;html=1;" edge="1" parent="1" source="10" target="24">
                    <mxGeometry relative="1" as="geometry"/>
                </mxCell>
                <mxCell id="10" value="&lt;div style=&quot;background-color: rgb(255 , 255 , 255) ; font-family: &amp;#34;droid sans mono&amp;#34; , monospace , monospace , &amp;#34;droid sans fallback&amp;#34; ; font-size: 14px ; line-height: 19px&quot;&gt;&lt;span style=&quot;color: #a31515&quot;&gt;QmN...yhM&lt;/span&gt;&lt;/div&gt;" style="rounded=1;whiteSpace=wrap;html=1;" vertex="1" parent="1">
                    <mxGeometry x="305" y="100" width="120" height="60" as="geometry"/>
                </mxCell>
                <mxCell id="17" value="&lt;b&gt;1&lt;/b&gt;" style="text;html=1;strokeColor=none;fillColor=none;align=center;verticalAlign=middle;whiteSpace=wrap;rounded=0;" vertex="1" parent="1">
                    <mxGeometry x="310" y="70" width="40" height="20" as="geometry"/>
                </mxCell>
                <mxCell id="18" value="&lt;b&gt;2&lt;/b&gt;" style="text;html=1;strokeColor=none;fillColor=none;align=center;verticalAlign=middle;whiteSpace=wrap;rounded=0;" vertex="1" parent="1">
                    <mxGeometry x="310" y="170" width="40" height="20" as="geometry"/>
                </mxCell>
                <mxCell id="20" value="&lt;b&gt;10,000&lt;br&gt;&lt;/b&gt;" style="text;html=1;strokeColor=none;fillColor=none;align=center;verticalAlign=middle;whiteSpace=wrap;rounded=0;" vertex="1" parent="1">
                    <mxGeometry x="270" y="1280" width="40" height="20" as="geometry"/>
                </mxCell>
                <mxCell id="21" value="&lt;b&gt;5&lt;/b&gt;" style="text;html=1;strokeColor=none;fillColor=none;align=center;verticalAlign=middle;whiteSpace=wrap;rounded=0;" vertex="1" parent="1">
                    <mxGeometry x="310" y="490" width="40" height="20" as="geometry"/>
                </mxCell>
                <mxCell id="22" value="&lt;b&gt;4&lt;/b&gt;" style="text;html=1;strokeColor=none;fillColor=none;align=center;verticalAlign=middle;whiteSpace=wrap;rounded=0;" vertex="1" parent="1">
                    <mxGeometry x="310" y="360" width="40" height="20" as="geometry"/>
                </mxCell>
                <mxCell id="23" value="&lt;b&gt;3&lt;/b&gt;" style="text;html=1;strokeColor=none;fillColor=none;align=center;verticalAlign=middle;whiteSpace=wrap;rounded=0;" vertex="1" parent="1">
                    <mxGeometry x="310" y="270" width="40" height="20" as="geometry"/>
                </mxCell>
                <mxCell id="24" value="&lt;div style=&quot;background-color: rgb(255 , 255 , 255) ; font-family: &amp;#34;droid sans mono&amp;#34; , monospace , monospace , &amp;#34;droid sans fallback&amp;#34; ; font-size: 14px ; line-height: 19px&quot;&gt;{&lt;/div&gt;&lt;blockquote style=&quot;margin: 0 0 0 40px ; border: none ; padding: 0px&quot;&gt;&lt;div style=&quot;background-color: rgb(255 , 255 , 255) ; font-family: &amp;#34;droid sans mono&amp;#34; , monospace , monospace , &amp;#34;droid sans fallback&amp;#34; ; font-size: 14px ; line-height: 19px&quot;&gt;&lt;span style=&quot;color: rgb(4 , 81 , 165)&quot;&gt;&quot;name&quot;&lt;/span&gt;: &lt;span style=&quot;color: rgb(163 , 21 , 21)&quot;&gt;&quot;000073&quot;&lt;/span&gt;,&amp;nbsp;&lt;/div&gt;&lt;div style=&quot;background-color: rgb(255 , 255 , 255) ; font-family: &amp;#34;droid sans mono&amp;#34; , monospace , monospace , &amp;#34;droid sans fallback&amp;#34; ; font-size: 14px ; line-height: 19px&quot;&gt;&lt;span style=&quot;color: #0451a5&quot;&gt;&quot;description&quot;&lt;/span&gt;: &lt;span style=&quot;color: #a31515&quot;&gt;&quot;description&quot;&lt;/span&gt;,&amp;nbsp;&lt;/div&gt;&lt;div style=&quot;background-color: rgb(255 , 255 , 255) ; font-family: &amp;#34;droid sans mono&amp;#34; , monospace , monospace , &amp;#34;droid sans fallback&amp;#34; ; font-size: 14px ; line-height: 19px&quot;&gt;&lt;span style=&quot;color: #0451a5&quot;&gt;&quot;image&quot;&lt;/span&gt;: &lt;span style=&quot;color: #a31515&quot;&gt;&quot;https://ipfs.io/ipfs/QmYLvZCSHSXrz9EHmoDWJVQekgjGdXybcbsyUSWREGBrPE&quot;&lt;/span&gt;&lt;/div&gt;&lt;/blockquote&gt;&lt;span style=&quot;background-color: rgb(255 , 255 , 255) ; font-family: &amp;#34;droid sans mono&amp;#34; , monospace , monospace , &amp;#34;droid sans fallback&amp;#34; ; font-size: 14px&quot;&gt;}&lt;/span&gt;" style="rounded=1;whiteSpace=wrap;html=1;align=left;" vertex="1" parent="1">
                    <mxGeometry x="530" y="60" width="640" height="140" as="geometry"/>
                </mxCell>
                <mxCell id="26" value="&lt;b&gt;1.json&lt;/b&gt;&lt;b&gt;&lt;br&gt;&lt;/b&gt;" style="text;html=1;strokeColor=none;fillColor=none;align=center;verticalAlign=middle;whiteSpace=wrap;rounded=0;" vertex="1" parent="1">
                    <mxGeometry x="540" y="30" width="40" height="20" as="geometry"/>
                </mxCell>
                <mxCell id="27" value="" style="shape=image;verticalLabelPosition=bottom;labelBackgroundColor=#ffffff;verticalAlign=top;aspect=fixed;imageAspect=0;image=data:image/jpeg,/9j/4AAQSkZJRgABAQAAAQABAAD/2wCEAAUDBAQEAwUEBAQFBQUGBwwIBwcHBw8LCwkMEQ8SEhEPERETFhwXExQaFRERGCEYGh0dHx8fExciJCIeJBweHx4BBQUFBwYHDggIDh4UERQeHh4eHh4eHh4eHh4eHh4eHh4eHh4eHh4eHh4eHh4eHh4eHh4eHh4eHh4eHh4eHh4eHv/CABEIAZABkAMBIgACEQEDEQH/xAAcAAEAAgIDAQAAAAAAAAAAAAAAAQcGCAMEBQL/2gAIAQEAAAAA3LAACMfwrFMc8bzutHZ9H18kyzNciAAAAAMfq+t/CQiEIPnp5DZ1sZCAAAAMQpnA/mIIhCB1+GH1Yl45iAAADx6LruEREEIiD46qEJs3YH2QAACr6L6aEQiEEQjrfEEQd3YS1wAAcFB1oREIhEEIjg4kEImPm19i+cAA6OuGHoRCEQiEQ4+uQhBDr5btl6AAHR1pxiIQiIRy5nmeTe56P31/Fx7D8Bx5CIOr57NNvPQADg1qxGEQh8sgtqye6AGKVJVPXPno9WDPdu+cAa/1tEIRD0rusz6AAPIoiq+Hz+OBFv7PgFY0JMRCIWFfnfAAAwDVzx0EGztvgePq11EQhF03FIAAB4uqGIQQd3dH3Aa81/8AKEF6WsAAADz9S8MQItPaYMS1niIRE3DdAAOm7gAPL0+x4gbg5sNc8Gh8kZvsjIAeXpk3N9QAGIag8CCLI2uPB1a+UQjt7UeqADwdLp3S9wACiaCEJ3OyVTVQQRC6rdADi6vcpXivIABwaZ+AgXjsFGrvg/CId/a/sABwVFwuXJO/mQAFQa3IIyDdHwtYvjiiEW7dIAGDYaPBzO1gAdfSnz4IblY1R7g+SNosjAA8ypx4+GbE5aADXCoSDY3oVpPFxw9fa0AMIy/sKd6x4eHZDstIAVrq8gW5OKI4IWJf4A83Vzt2jbNYeGYxjLYfMQA8zSmBGbel5MR88UXNboAqinnb2trrGTBPNWddQANLfJQe373WiHHx37YwBGsXiu3tbX+KOnX8Mx2HABqTh6DtZN8oRw7C54AYjrqdva2vcWYV45lWxwANVsDgTl/zCIjYLOgCia9O3tbW2O+BiIzHYcAGrOBIJzXqoRF92AA6mrPAdva2qcQw2BZF4AA1Qwwh3M48eEIuW1QHWx4ffv694pAX1nwANOfFQe7neIwhFj3mCoq1HpbKuPqVbNi4HVHvbG/bgr2ptg/fDp6X/KDN8+rKEI93Z0GvdIDt7xcxUH3bjxPUwKovCxT19ssgBgWsBBbefUb8oRG0nrhSuuwWxc/KrL7so8TXDxXJuDlwFC0+gjYnPdX4hCLitgMN0+AABa+zgHxqB5BBt/7etGPwQ9fZ/wCxGmGOAABtvngFda2wQyXbRU9QQQi87HCotaeWONyTxPv74X1ycOa7fARqnixBeFzvL1f4yEens72h81pYHHVS1vuq+tavbq3zbV9Ks8290CrdfoIfe3frlEV8QiLIvMAAAAePqp0CCy9iB4OtHwhELzsgAAABwayYiIfW1uRBSNawRD72CzYAAAHHrtX8CFq30Dpay+aRCOW+M/AAAHX15wGAeptX3gMI1+hEELat/wCwAAPB15xqI+ROyWdAFO1QhCDI7vyoAAcNUU51ifj5LkukAfNB4JCCIM4tXL5ADpVrU/jwgR82LsNIAcVAYTMQhCHrZ1l2S+rzI6ngYthWE8CIQGebEcoAHFROAxCIIfJH1zfXDwwRCIQLHv3lAAIqOo/lEEPkhCIEQiIPq5rgkAAGHUZ5EQREEIn5gRCIh7V/ZiAAAdao6t4YmIgiE/MD5Ijntm4OwAAADyqnrfrxEEIRAiHas22/UAAAAHVr7AMP4SEIQcuY2HYXZAAAAAOvimM+B5Hn8Dl9H1/fyjK+cAAH/8QAGwEAAgMBAQEAAAAAAAAAAAAAAAIEBQYDAQf/2gAIAQIQAAAAAAHtbaxl9iNWU1OgAAANeX8h3d2bh7yzebUAAJWomu7uzui+s0LDwQAJup7O7tEh83k2fVm9iYetAJOq7O/tLQxwDpe6rvz85YSEHuqlu/HKwwAA7bK3CDgFLe8d+WS4AHvgB7trkMrmW1fZ2ycMAfXZBQDp9ClnH5vI0nR6vOgDXkqlggBd7jwxUW2lNlIoAaezKCkAPfpMooaKTYJkAC2990XvuH5gGz0RCyfSVzzIBtJOU1DNlasA0uxOeKd+NEBO2HmV0/QzNOAaDcHmE6PGpQLSy8i6L0yEAA0u0854Tu654NDK8yrXNdaVstqhTa6UgYea75/iaKxIHGXEay55NQ+nzDO5C2d4FQWGjAAKalC7+hBgKK87O2e4HX0PVZUUf6XYEb5Ys61d+WeQAAAN5pPDE5Y9u5TPyz/EAAH2en6FX80UOt72d/amq5gHtzqp/vZfmkIA73vd3f2JGTpMtJL9G44KuAA63st3fozu7u/SuxMQAAPbG5kO7u7u/DN0HgAAAezbGbK6e8YdXV+AAf/EABsBAAEFAQEAAAAAAAAAAAAAAAABAgUGBwME/9oACAEDEAAAAAADnBwsd5m9fVJzMw8AAAGVWrcVcquOi97LYnAABH5/4HKquVXOVV9119gAERnXNVV0nI92+OOY4d67nIAEdmXNXPtFp9YBzgaxy7r0u3sBmXR7l9uhSQAAcqjFB7by4p1LHe3TPUANcAJTogWzWLnknBXadKgHLKtV6gHOh+U7aDW8+ctovoAypVm/TAAQ9MC41GudF1SSACgQPK23UATPPOTdR8Hf260AVRvak8IzbvSAVGAPZU2dbFpIBi8drmf+CO1S0gFeqQ+sqtp0YCDx7preewrNOt4BA00WC5rYtNAq1bdOZvxNgnQCu1A6Rscshr4UGNfpjcp0arWWM52t5T66e5lVV2uyJQa+TfqrljbXu2o9QzfyE/7szctxvxBZ8AAW64BD0MLzMY35l66vJnmYKjmdOzxmd+BfRpbqbQVdJan6AAAApFfC42Ybk8U4lNL9wAAc6RAOJLRVDwZRwHdbpa+4A2Bp3iV3q0b1gETmPmcL0m5Tuzww/BVX06HIgAeHOIhVcOVyqqrLX31gAAlUpvjcOVyqvtt1kUAAAGwcDF+Rnb2yk7MqAB//xABPEAABAwEDBgcKCwYFBAMAAAABAgMEBQAGERIhMDFBURMUICIyYXEHECNAQlKBkaHRFRYkMzRDYnKxweFTVFVzkpM1RIKDsjZQY9JF8PH/2gAIAQEAAT8B8SnVulwvn5rQPmpOUfULS77wEY8WjPvHr5otIvxUF/MxY7Xbiq0i89ce1zSj+WkCzlWqjnTqEo/7hsuTIX05Dyu1ZNiSdZJsCRqJFkSZKOhJeT2OEWbq9Vb6FRlD/cNo96a4z/nS5/MQDaPfmoI+eiR3ezFNol+Kc5hxmO+werBQtArlJnfR5zKj5pVkn1H/ALFU6zTqcPlUlIX5gzq9Vqlfdw5SafFCRsW7nPqtPq9SnfSZjq0+aDgn1DSqzDvU+t1WBmiznUpHkk5SfUbUy/qwUoqMMEbXGfcbUqtUypj5JKQtW1BzKHo8drN4qdTMULc4V4fVN5z6d1qveqpzspDS+KsnyW9fpNjiTiTidO4c+HIBKTiCQRtFqNfCqQSlD6uOMjY4ed6FWod5KZVcENO8E+fqXMyvRv8AGapU4dNZ4WW6E+anyldgtXb1zZ2U1FxisHceee02PiCjgOWMxxFrv3xnQMlmbjLjjNnPPT6dvptSapCqkfhob4WNqfKT2jxa8d62YhVGp+S8/qK/JT77S5L8t8vSXVOuHao+JKOJ0MKXJhSEyIrymnB5SbXYvgxOyYtRyY8k5gvyF+4+JvutMMqeeWlDaRipR2WvNeh6cVRoJU1G1FWpTnuHiazs0R711L3PQCmJUVKei6kr1qb94sw80+yl5lxLjaxilSTmPiE6XHgxlSJLgQ2nba8dckVd7DO3GSeY3+Z6/EfT3lnZpXXMnttdK80qiSMhWL0NZ8I1u609dqfNjVCIiVEdDrS9RGmny2IMVcmQvJbQM9rw1h+rysteKGU/Nt7uvt0jLTjy+DabU4s+SkYm0G6tYlYEsCOne6cPZaJcZOuXPJ6mkYe02YufRW+k06799w/lZmgUZnoU2P8A6k5X42TTqenowYw/2hbiEH9zj/2xZdKpi+lT4p/2hZ+61CexxgISd6FEWk3GpTg8C9JZP3gr8bTLiTkYmLLZe6lApNp9EqsHEyYLqUjygMpPrGhddycw19+6l4JNCmZScXIyz4Vrf1jrtTpkeoQ25cVwONODEHSPutsMreeWENoGKidlrzVp2rS82KYyD4NH5nr0dKo1RqR+TRzkftFZk+u1LuXEaAXPdVIXtQnmp95tEiRoiMiMw20n7KcNJVLu0moAl6KlCz9Y3zVWrFx5jGLlOdElHmKzL9xtIZejulp9pbTg1pUMDyDgBns47jmTybnXieoc3BZUuG4fCo3faHXaO81IYQ+ysONrGUlQ1EaO+dc48+YUZXyZs84j6xXu0VOgS6g/wMRlTitu4dptQ7oxIuDs8iS95vkJ99kpCUhKQABqA8QqdNhVJng5kdDg2HaOw2vBc2XDCn6eTKZGcp8tPvsRgcDmNnFhPbZairXy+57eM0+QKbMX8kdVzFH6tXuOivxWeKMfB8dWD7o55Hkp/XRXbuw/UcmRKymIuzzl9nvtBhxoMcMRWktoGwbfFLy3XiVZKnWsI8v9oBmV2i1XpsylyzGmtFC9h2KG8HQ9zq8Bnxfg2WvGSwnmKPlo940FYntU2nuSnPJHNHnHYLS33ZUlyQ8rKccVio6Dbha6t1gMibU0YnWhk7OtXusMwwHi1ZpcOrQzGmNZSfJVtSd4teagS6HKyHfCMKPg3gMyurqOggSnoMxqXHVkutKykm1CqTNWpjU1nyxzk+araOXfaqceqPFmlYsR83aradDc+7gjpTPnt4vHO22fI6+3xmoQ48+IuLKaDjSxnBteqgSKHMyTi5GWfBO7+o9eg7nVZ+DqrxN9eEaUcM/kr2H8uVeupfBtJWtCsHnOY3279Dcig5WTU5iM2thB/wCWlkyo0VOVJkNMp3rWE2jSo0pOVGkNPDehYVparAjVKC5DlIym1j1HeLXgpMij1FUR/ONba9i07+WMRnGa1yqt8LUNtxasZDXg3u3f6eTfSocdq6m0KxZj8xPbtOgujR/hSblvD5KznX9o+bZICQABgBq0lXmJp9MkTVDEMoKsN9qlOk1GWuVLcLjivUOoWps6TTpaJURwtuJ3beo2pMxM+mx5iBgHkBWG7S3rorVappZOCX0c5le4+6z7TjDy2XkFDiFZKknYeX3PaoafXUsrXgxK8Gr73knkV+b8H0l+SOmE4I+8dViSTic55cOO7LlNxmU5TjisBakwWqdAbiM6kjOfOO06W8MNVQokuG303WyE9tnULbcU24kpWk4KSdhs02t11LTSCtazglI1k2oENVPo0SGs4qabAV26bumUTFIrMdGcc2QBu2K5YxBxBwI1WuxUBVKJGl+WU4OfeGY9/uhS8p5iClWZI4RY69mg7n1MyW1VN1OdXNa7Np0jrjbSMtxQSkbTZEyKvoyG/wCqyVJV0VA9htf2BEeqTS1MgLU3nUnMTntcWFGYqyihoZQbOCjnI08hpt9hbLqQptaSlQO0WvBTV0qrPQ145KTig707OX3Kp+S/Jpq15lDhWx16j+XeOq1blccqsiRsUvm9gzCytfKp0Vc2czFb6TisOzrtGZbjx22GhghtISNJIaS8yppYxSoYWkNKYfW0vWk4WBIOIOFnfC4cLz8NWVntCcMN7hmAlKsMNVkVySOk22r2WjV9gyW2JKeB4TMlWObHdpu6bS+MU1FRbT4SNmXhtQfdy7uTPg+uRJZOCUODK+6cxsNVrwSeKUeS9tyME9pzd5XK7ncHKdeqCx0fBo7dumvLHwWiSka+ark1tOMZKtyrXPrpcyadMXirUys7fs6WSyiRHcYdGKHElKuw2qUVcGe/Dc6TSynt5d1pnHrvw5HlcGEq7RmNu6C/kU5mPjnccx9A/wDo0F2oghUWMzhgopyl9pz6aqM8PAdQNeGI5NX+hHtFkkpIUkkEaiLXXqnwnA8IfDtc1zr69L3T4QZqzM1Cc0hGCvvJ/Tl9yyTl0mRFJzsu5WHUofobd0B3KqbLXmNY+s99XIosfjdWjRyMQtwY9m3SP3lgMVJyG8FpCDk8IM4xtHfZkNhxh1DiDtSce/KRwUlxvzVEcitHCIBvV3rvzzTqm2/9Wea4Ps2BBGIOI0ndHi8PdxTuHOYWF+jUfx5fcteyKzIYx+cZx9R/W17XeFvBJPmkI9Q5GHf7n7AcrSnT9U0SO05tHVJSYVPelK+rTiBvOyy1KWsrUcVKOJtDlyYbvCRnltK6jrtR72FbiGJ7OdRCQ43+Y71cTk1NzrwPIrivmkdp79z5nG6K2FHns+DV+Xs0lVYEmmSY5GPCNKT7LYYZjyrjPcBeiGfPJbPpFqyvhKvLXveV+PIV3+5w14OY/vUlH5/no+6BMwbZgpV0vCL7Nnfh/TGf5ifx714xhPB3oHIqTnCTFkahzR3+5/IyZsiMTmWjKHaP/wB0tYY4tVpbHmPKHt5VAXwdcgr3Po/G0pWXKdX5y1H28lQ73c+RhRFK855X5aInAYnVauTOPVV+T5JVgnsGrvw/pjP8xP496830tv7n59+Y7wEdS9uzt5FzV5N4WPtBQ9mlvojIvPOG9ePrA5UNWRLZX5riT7bHOceURha4gwu+j+Yr8dFe2bxOjO5Jwcd8Gn06/ZyIf0xn+Yn8e9eU/LED7H59+qSOGeyUnmI9vIul/wBQxe0/gdLf8YXpk9iP+I5QzEGyhgojdy7i/wCAI++r8dFfqbw9TTGSebHGf7x5EP6Yz/MT+PevCcaiRuQO9VJeQngWzzz0ju5NzE5V4WOoKPs0t/8APemT2I/4jlJGKgN5tMTkS3kea4oe3l3CVjQyPNeVoZr6YsR2QvotpKrPurffW84cVrUVHkQ/pjP8xP496rL4SovHcrD1WqE0Mjg287n4WJJOJOJPJuAzl1N5/Y23h6Sf00t9VZd55vUoD2DlQUZc1hHnOpHttXEcHWJadzyuX3O3cY0tnalYV6x+mhksNSWFsPoC21jBQ32+LtG/ck/1H32+LtG/ck/1H32+LtG/ck/1H32+LtG/ck/1H32boFIQtK0wk5STiM5tJdSywt1WpIxtUKlzlJZOKjrVY4k4nlXGiGPSOHV0pCsr0bNLXXuMVqa8NSn1YevlXeb4SuwUb30/ja97XBV+R9vBfs5fc/eCKq60T841m9B5d/LwVCjyorUItAOIUpWUnHbb48V7z4/9q3x4r3nx/wC1b48V7z4/9q3x4r3nx/7VqZfOtP1KMy4qOUOOpSrwewnvutodbU24kKQoYEHbZuFDb+bisJ7EC18UpTUmwkAeC2Drtc1CF1B4LQlQ4LaOu0mk02SMHYTJ6wnA+y1Uuggpy6e6Un9m4cQfTaUw9GeUzIbU24nWDa71IdqkoZiI6D4Rf5dtm0JbQlCAEpSMABs77zzTDfCPOIbRvUcBaq30o0PFLLipjm5rV67TbzV+uP8AFYCFshWpuP0sOtVrvNz2aPHbqbnCSgnnnHH28qc6GIT75+rbUr1CxJUSo6zn5VxmeGvNF3N5S/ULd0FrJqEd7z2yPUf15d35HFazFexwGXknsObl91lPyuAv7Cx7RyYT3F5jEjDHgnEr9Rsw4h5lDrZxQtIUk9R5F8/8Tb/lfna5X+JPfyvz79UpcKpBHGmsSg5iDgezstHZajtBpltLaE6gkWvteByiR2BGS2t91WpexI22cv3W1Dmpio7G/wBbSr1V+R0qgtA3NpCbSZEiSvLkPuvK3rUTagUmTWJ6YscYDWtZ1IFqHSIVHihiI3n8tw9JZ6+Xf2Txe7byQcFPENj06+X3MWMqpyn8MzbQT6z+lr+scJSm3trTg9RzaCjSuOUuPIxxKkDK7dvK7q7BVTockDM26Un0j9OVdC9yqW0mFOSp2KOgpPSb94s1eq77icoVJpPUoEW+M9A/ikf12+M9A/ikf12vTV6ZJnocYmNOJDeGI7bXUrFMiznVyJrTaS3gCe23xnoH8Uj+u3xnoH8Uj+u3xnoH8Uj+u1TvpRYrSjHdMt3YlsZvWbVqpSatPXLlK5xzJSNSRuHfbQpxxLbaSpajgkDabXUo7dGpSGMBw6+c8rer9NB3TJmXLjQUqzNp4RQ6zq5fc1j8HRXXyM7zp9QzWrEYS6XIjnykHDt2aDufTAW34CjnB4RHZt5V9IZm3altJTlLSnhEjrTn8T7mlM43WFTXE4txRiPvnVoHFJQhS1nBKRiTaszDUKpIlnHBxfN7NnLoUUQqPFjYdBsY9u3vXhi8TrMhkDBOVlJ7Dn5dGmKgVJmUNSTzutO2yFJWgLQcpKhiDv5JAIwOcWvLT1UutyYh6IVlN/dOrxK4lONOu8yFjB1/wq/TqHq0F/qjxOj8XbVg7J5n+nby7rw+PV2KwU4py8tfYM/f7oEQlLE5I1eDX+WguNUeMQTCcV4Rjo9aeV3SqOZdPTUWE4vRhz+tH6d5ttx04NtrWfsjGziFtqyXEKQdyhh320LcVktoUs7kjGzjbjRwcbWg/aGHfQlS1ZKEqUdwGNnWnWvnW1o+8nDvpSpSslKSo7gLOtOtfOtOI+8kjvXMpBq9abQtOMdrwj3Zu9OgUQASTgBtteipfClXdfB8EnmNfdHL7mkEhEioKHS8Ej8/y79WiJnU56Kry05juOyy0qQtSFDBSTgRy6XMcgT2pTWtBzjeNotEkNSozchlWUhYxB5KgFJKVAEHWDb4j0TjpkZL2RjjwOXzPfaHEjQ2eCisNso3IThadBiTmuCmR23k7lpxtULgQnXCuHLdjA+QoZYFqfcCE04FzJbsgDyEjIBtBgxILXBQ47bCNyE4WmRI0xrgpTDbyNy042qVwae+4Vw5LkXHyMMtNoPc/iIcCpk5x9I8hCcjH02p1Og09vg4UZtkbckZz6bSo7EpotSGUOtnWlacRaqXDpshwuQ3nIePkgZSbQ+59HS4FS6g46nzUIycfTamUun01GRCits7yBnPps+y0+0Wnm0OIOtKhiLVG41Iku8Iwp2JvS3nT7dVqLSYdIicXht4A51KOdSj16C/1X4rD+D2FeGfHPw8lH68ttCnHEtoGKlHADrtRoSafTGIifq05zvO3kX3gcWqXGkDwcjP/q26C5dX4pI4jIV4F08wnyVfr47WagzTIC5T2zop847rT5T02Y5KfVlOOHE+7l9z+m8aqhmLHg42cdajq5NfgCo0xyPgMvpNncqyklKilQwIOBGgufW+NtCDKX8oQOYo+WPf42+62wyt55YQ2gYqUdlrz1hyrzcoYpjt5mkfn28tCVLWEJGKlHADfa7tOTS6U1GzZfScO9R5V+KZwEoT2k+DezLw2K/XQNrW24lxtRStJxBGy12K4ips8C8QmWgZx5/WPGXFpbQpa1BKUjEk7LXtr6qm6Y0ckQ0H+4d+g7n9K4eWak8nwbJwbx2q3+jlzozUyI5GeGKFjC1ShuwZjkZ4c5BzHeN+gacWy4l1pZQtJxSobLXavC3PSmNKIblexzxeS+1GYU8+4lttIxKja9N4HaossMYtxAdW1fWfdoKVBeqM9uIyM6znPmjabQIrUKG3FZGCG04DQXspHwjE4ZlPyloc37Q3WPXoASDiDgRa716cnJjVNWI2P/8At77NrS4gLQoKSc4I2+KVmrQ6WzlyF849FsdJVq7WpdWexdOQynoNDUPee/hyQCTgBibXPo3wZC4V5I408MV/ZHm6K+dFyFKqUVPNPzyRs+1oqNWptMVg0rLZ2tK1fpaj16DUgEoXwT37Jev0b/EXnW2Wi66tKEJ1qUcALVy96E5TNLGWr9soZvQLSHnZDqnn3FOOK1qUeSeRcahYlNVloza2EH/lo1AKSUqGIOsWvVQ1U90yI6SYqz/Qd3ZotRxGu1KvPUIeCHTxpobF9L12pt46ZNwTwvAOea7m9tgQRiDiNJLlxojeXJfbaT9o4Wql8mGwUU9kvK89eZNqlUptQcy5b6l7k+SPRoroUA1F0S5ScIiDmH7Q+6wAAAAwA0jzbbzSmnUBaFDAg7bXmoblMd4ZrFcVRzHzeo6SDU58L6NKcQPNxxT6rQ75SkYCVFbd3lByTaNe2lOAcIXmT9pGP4Wj1emSBi1OYPUV4H22S60voOIV2HvkgazZyXFb+ckso7VgWk3io7GYzULO5vnfhaZfOKnNFiuunevmi0+9VVkZm1ojJ/8AGM/rNnnXHnC484pxZ8pRxOjutd9dUdD74KIiTnO1fULMtoZaS00gIQkYJSNmmebQ80pp1AWhQwIO215bvuQCqTFBXF272/004JGokdlhIfGp94f7htxmT+8v/wBxVlOuq6Trh7VGx011rtuTymXMBRF1hO1z9LNNoabS22kIQkYADUPECARgRiDa8d2OlKpietTP/r7rEFKiCCCNYPjqUqWoJSCpROAA22uzdXJyZdURidaWN33vdYAAYDxOvUCLUwXE4MyfPA19tqnTpdOe4OS0U7lDoq7D4mdBSaXMqb3BxWsR5Sz0U+m1Au/EpSQv56ThncI1dm7xaSwzJZLL7aXEHWFC1ZuktGLtNVlp/ZKOf0GzzbjLhbdQpCxrSoYHxE8phl2Q6GmG1OLOpKRibUS5xJD1UVgP2KD+JtHYZjspZYbS22nUlI8ZqNOh1BvIlMJXuO0em1VujIaxXAc4ZPmLzK/W0hh6O6W32ltLGxQw8TixpEp0NRmVur3JGNqTc15zByou8En9m3nV67U6nw6e1wcRhLY2nae0+OyY0eS2W5DKHU7lDG1QuhDd50N1cdW485Np12arGPNZEhO9o4+yzrbjS8h1CkK3KGGlZadeXkMtrcVuSMbQLrVaScVtJjI3un8rU658FnBUta5Kt3RTaNHYjNhuO0hpA2JGH/YnmGXk5LzLbg+0nG0q7FIfOIjlk/8AjVhaTcto5485aepaMbPXOqKfm3o7npIs7dmst/5UL+4sGyqHV066c/6rGkVT+Hyf6LfBFUP/AMfJ/osmh1g6qc/6rNXXrTn+WSj7zgszc2oq+cfjt+km0a5TI+kzXF9SE5Nol2aPHOPFuFO9xWNmWWWU5LLSGxuSnDxP/8QAKhABAAECBAUEAwEBAQAAAAAAAREAIRAxQVEgYXGBkTChscFA0fDx4VD/2gAIAQEAAT8Q/BUBVAM2in+6WR80eNBsfOy+1TQQ5Mg+D2pSz7fTzU+ynK+EqTVX+5aQlDmzSHgGKvrf9UNMzEc75mkrE2+jmjAIM1o/J7UYFuaB9yH2oDbuaew0IkjZ/wDBbEOkv3Zc70vdcL7gbHdqXHH+SDDTicYwUr4pvdvQYjJPnAVbhIRD1fqasDpKvOX8fmhZXpAHmy7vFIZFBLzy+IpqQjKrK98HFwfQkg0pxI3zCQnRrKzptJ5PM0HFq8Mns7Ht+TFyowXTbUqSVii0+x0PNJVVVWVdcXB4nBpwuGulOeDwJBERkRhHekI3QYC5LIbeVBhYJrJslz8VQJahQ0ru/wBvasybMx6GxyKSnBwcHBp4Wss6uGmmMUnBFZTL0iTZMk5NP5SEw/V8DbZ0/DdSpGAVeCsVh/Fs3XanhcHgcCnBwnsy1xjBwaM8BUVYkZNn88jM02olQJgDqP4Bnlus10A1XalM5Ibn8vwppxfSaU3PNSbPNWdSoSGdOMU4pwgYLvI2qTM1Ru3Pa5Mn3or9TutRMxNR9YK0wtV0A1Xap4JobY7t1vg8Lg4hclC07FTxXfvCWhxyFPkfFQE1rmPZRUIjmvlQwQW36aUIX/vaj0n9/wBdTRXsPsMe1MNoQA7ChRYuOXyURnE98XCKzwcYxCTzu2pVZWVzcLYTX7D2D75NQ1iLM3E0RsnqPwi1ACryuhtfuexWmDxtG5uuz92faaHSLpR5bHirN+hCl1dfTgrQw0xPUs9xqAkXtlyH9FZp4TDs4RTSkIDnTSsGrq1FRUVFRDOhurKHZqanajR3VlGSeksEtMr26rBr0abt9qeBpwcD+uQse+QFDRiGZCdPtblRYWgEAbB+A+jKHI6ZcoQNKS10LHpflSICDCJCND3voKTlW0NKioqKioqKyz6bZ35s9m+9FyfRWVyLrvp1+FZVpg4uDlUmkwqIHkcjm7VpD3Lrdc15v4k1XLX5trdc+tBa98zzgVFRwRUUlZxiMuVu9gdyHf0Ih2xPdcj+ymnDIc46HIyOBwcAUAVbAa0DkafbYG/+tqAAABAH4wDGuFt8aPzrUYHJoDdsbeKioqMYqKSmRoJNHcSyc6e0CCaUs3o+0cbpJSYyy+ZGR3pxcWgVAFWwFBYhCyDRH9Ov5Mf6QLjojomjV0tmLJ7A98yoqKioqKioqyUieTI5Q5u23EGhD8xF+wl6xTLdVd3B4iyaYHPnPjzt6pVmyEPlp6X5iDw+qCGK56SaJmNBq5VI0A56Jo1FRjFRSQRQyI3KDvfBJbsQ9Z4VPJEWT+9btg8Tq2Ql7Q+Xl1oSwIAQBt6nUBygWO7FNzubtnQNA2pqdzdY6hqO1Jl56iXOzJ6t1y1nbebJ86U/wwlwYTCKioqKihXRhcj2F7d+AlhYTrY/btTBFGVdXBwa0wUUAfXV5Bd6UeGu81zOr6qRBJDBqDyFK/eRCDCNFoqTKsgKKsqjLUx3X1ruRgGeTsZPKNuKKY3IFGYmTSlSytvmEnvjdCQB1WD2l708DWmGr/z6fcbdB39R3n8SCs+PYfNDyHuDUorN5ZF0z708YlciQsuXb18leoSEJRbKW9e68WeY1FRUcC2Y7HRAnUl2cECVgM6g9VxL+iChD504uAZMOYZNewlqNLh5BHqBqkHLnRhXy57NTJI1GGmtJYhJQbXpKsprIRqAOfE/agYrU73NuvrBM7SC6Lz1Q92oqKioqKipQATP4IWkIRkcmjPYLvch7s9sDadqajByoo7MG6arvxB3fWCCC8NzJ+Ttw2GyzsjTUAknfnc9nt6sX3VuEPzV0haxkGz3Ie9RUVFRUVGlEwyrzf8AeE96EbN5yZ+XAkkUkMVpg1lerKK7zfT5jt60QpPflzhJf5XmlosKIRMkoxQtB7O/5n1XEE20bHyPFRUVFRUYDlTWyQe9BHskw2U+gprSjrg4DYhXkZ9g0WIMvTF4dFzQhcjKb5VkFEKPbBBEbjSp/wDU4N0B9hwn8y32abvbPtRMyEiNk9Qj5j3UT8VIqKioqKipcgRic0n4VNoRXY/7g5UkkUwYxF63KCHwn07qovYA7sVOKB91Za3hw2uoye9HogCzVg/4eMLdMvlP+cGWt7vxjOIuzahm8jx6kW5Hc1B70pahZ64RUVFRSjZdOP8AYVeKfgo+sHASTrTgY3MDsK+HpqfC4TOFh5l7Y/1NmH9theAWE+yf9nHLkR82H29Q3K5T/wBJJ7NRUVFRhDLHzifdSFf3VODlg1BcywCPup7A9InQASroUhC2W6WvhPfH+pswF/8At2Ir5CDusqVWVlc3FCjmvdv16jlUOEQ+axioqKQ+3spaUizWacGmnKpnKusV9Izj6l3DpLg/qbMJNt92IlOkBNWrwCfVesvVqIqKjFwmiNcwCYODWlJNZPb0sDsxbrNx8EHng/qbMOWl+X7wmrcsaNurwyz/AH/79VSzQsCKioqK5ch5qRv0CMGngCZuD4fRzYCc4MqmGEeazwf1NmBjskHsj6pmgpfbn60zciVc14XQGzvJfS9RqdTPsJYRUVGCR/2ZKsP+wz94uLQItjnKD59FNQIVgduE0aNGh7QIvCXNaR8Hqig6lnsLnG7zpIRVZV1wEcmeBQMQJsbfZ7+o0WYl6BB8VFRUVFRViZ+DL6q0hgF3E+5Tg5VpjAMmRug/C8btDieoAi9s6/yf7r/J/uv8n+6/yf7op4cRUAwzbPFO+B5A6NHgKbb6oGPCwGqtEoBJk3p6qdB5oNJBmXwhmO80vULO/Xmc6KksYrRt5vbOgqkyQBAYtBrM5d2gQDp2vN28TU7xSBX5EbpBQnIa+ZsDqQgXXiVCBF2kfqpiJVdW9RUVFRUVfw3Hux7tQkQKvP8A4KcHgmSCV7r541Itn3pwzYgoGoCntQhSg1CR9+D2T5V/Dy4iEENuNUmragvFEIFMxvEyAvARzQqBJbo/NFGXEQn2J965qQaeWocQR2dzeexq0JAQQZ3C+sjjSxY5vCn2D5qKioqKiopnZBHZ/UqAQlKdgV7xi5cBOlmiNuM5be4eK+AL7x78Ro9aoHSHwZlCZJqE7JX+k/Vf6T9UbMiVgZWyqSIEWFgxlX+k/Vf6T9V/pP1UJHX0TzIA80MR8IctvlviWAedIwHmhQ4B/FO2Q86+gQkqFpYl2HzUVFRUVFRVuRIYzEHvNEZL20T7gq+tnXgcYSUY3Vh5h78VrU6zUydhKESTJ/CInOlyZDwJfHoC1YVkAStXogQ5hsPAcV9CWjfBhecn3LhMQjPsvlKcGtMVQbcmpYePijcgCbBJHhZkIQjqUYV+m972W6j+FlgBJCQPAD0JQq0BmaviDvUVFRUVFRVhjAaZ6fAd8ZSJNDQbrzJ3p4taMG3uatvDbpHEDVKIXfPyv0XBiZZjo8VzYKV4cebBSvBRFyyFT5x5ubS8FIAu5DT84klXJSvYoYQXK8eTCQIRHJDbvW6TQAAEBxi2BKmAN6ZSXg5mfdl71FRUVFRUUT8GK5wXfmHbGwJMbTdeQpwSCtEYTju4cgv8hRNhzfDzMuEYLICRHMSlWT9CltlZyn2osd6QPWM3m1tY8EOjmdqv2yg9AqMdZp6bTB6hFY6RRbUwEurm96bvekB0nLtRFvUgPKUTy07yJQDkZLHSKkZ5C8pme7WSW0E7NMiLm8+QsnmKHBWU0W0lfFQk0RKdZXfNFreA07NE5w3wnQl4W5VNsyX5kvrI9AoaXNX1O+TpNRUVFRUVFLDPNmpgKufwm83XdXgUCl5Gh+1nzg8LnQ2DeqzfXy/NWeQwDd8h/ZVfVCaGw5BAVFRUVGN5YyT+QJfHCGoJI0MvNzvTfHkZiZlPAU4CMWSMvTo9y+/5b8MMwAq66lGcavm9i1RUVFRUVFKLIFmlgKMIowzmPGRyOJjQaEd/s9xprTiFjheFGSUc2GMB/Safkt24vADNWrXNOiGrlsd8IqKioqKinIVhjr9j3eXHOhNbjonMb0nQyBBpDklOOuLU1iwwrco8FIHKLU2eXj8eSYJYApU7WyqZcjbyp4opBWk5BzOQfVQS03ndea39AoQqYdd+5z60EUCJZEyx1pwa0okhEiMI0pSyYpTkNf40Er5OQbj+JdfJzqcjQ5tqvBCU91+TxhE0o4QCEYAJVobQBNc4Hy8+npTCzSbNs5b+cWnBoyxByxlsvpu5lBNWygJ5suz8EtbSQDmtRq5DYfm6tutPxyZBajgG3A9qlgz5/rzt6YwDIhIjmNZDQhdbV8Htjpg5UZU4a0KCIGRMxo09GZYbH7zU8ToypvLI+aBAQkRkfUQbxHLoa1lTKGlzDN9qRB5mWOiLfdPGk009G6FoNDk1dct6NsCACANvUcRYeQOlKBvbut/gda1xcHihwmyfILUIZFlE5wyT4qXJZkQ7yopJ8geKDREgclqanr4oCQDm0SoBn940+iOgy7iPeh3RBD7mh1x0+0PiKzsELTu4uLnw7Uawp7G72oZFiYAZAessCQ8gdGnYZkZ8h35vOGtNFOeDg8L0r3/CVa+mD90uXT+t6E8ivlq5lu86aKacXF4BR9FW6e3NrpvRd5DwBkB+AzMCESRKU5iP5/jltTBgQEI7JTg4ODwuGuLnTRTTi4OJHxBSpyAM2hZQwq5sdz/ragAABAGn4YFALWnKdeudMZw64P4tng4OeDTjrTgcDRgcXBwDoNiz6n0L1EUSHfgdHv8Aja+v0KSz8WyfJ0fNLb2EA7OGuDTjrg0YuBg0xcFk/CSVFLESQvT+DzRI8iAD8mxEkQx0xcqEffgDk5eynzhC9e+eDnTi8GmDgU0ZYqgzn4ddu9bwdIIc8h2mpQdkE9cu/msgpCPw2qb6gR5ueafoHKY8oaZB2b14cXFrTHSimjSXk9+ChXICPYS+Yo/MzfB2LvdoCsQHHt/4XKwRD3psw5rHxcqVV7I+RKl0TqfcqeY381ypLwS/DQ8/Notjza+VJPloAUjtY7C1Co2sJ9io9U2Y8stCLfcV7cvauShUPb8P/8QALBEAAgEEAQIGAgICAwAAAAAAAQIDAAQFERIQIAYTISIxMhQwFSMzQRYkNP/aAAgBAgEBCADvRGc8Vgws8nq8ODt1+8ePtk+FiRfgUYo2+0mNtJPtceH7Y/458FcR+qPG0Z4v+xVZzxW1wxPumhgjhHFBQoUKFCt6onZ30mtop14yXvh9l21u6MjFW/Ta2klw2ltbSO3GlFChQoUKFCnbfoKHQVe46G8XT31hLZvxfvs7NrhqijWNQqihQoVvXzLk7WL7N4gtx9f+RoKHiOE+hizFo9RyJINoKFCt69TcRpcIUfI457N+61tmuH4iKNY1CqKFCiwUba6zar7YZ7uac/2dscrxHklp4gkT2z211FcryiLaoknpNCkyFHvrJ7SXgeqqWIAtbcQRhQKFCri6jtk5Pd30lyfd+mCeSB+ceNyqXY4PqtdL+yW7hKF0ZGKt0xlvsmUihQq4uEt4y7XFw87837eJ1vuVip2MTkxdLwfrn7LiRcLSqWYKIYxGgUChWwBs3t0biTfdHosOXFeOqfXI8e2KVonDpZXS3cIkGq1VxAs8TRtJG0blGs02+6Q7G6FCsrccIxGO1dchyOHRhtDZyCDyhJjbhASe7B3nkT+WdVrpn7fy7jmLNdJuoG9NUKFXk3mzM3fipvMg4mh81lbERnzk7QSDsWU/5ECyVrp4hh52weoF0gFI3E7pTVxJ5cTN3Y2xW5DM9ziJY/WPDPqRl6D5qRFkUq00ZikKHt8OTcoGjPTJR+ZayLSDQFCoH/0ck2rc91lB5ECrT/U1ijq4HRR0zCBbjfd4afUzr1lXkhFChQrIScoNHsx0HnTgGn+prEjdxQG+uaP947vDf/qbqaQ7ANChV6Nwntx17FahuX81BTZqEjVYWIlmegNdclL5lyxHb4ZTc7tWukrcY2aoDuMGhQqZecbDssreJ4FLfiQU1pDxOqDMBob/AOnUN5PCfbJmdxaWGxmmXmExLn7Srb2foGbkSevhmHjC8la6ZSTy7ORqs22mqHQVcR+XIV64t+UPHrNjopW5V/Ex1+KvleVX8THS4qIHZVQo0JpRFGXLuXYs3QDdY+2/Gtkj6+JZuFsI6tH4vqhQoVkIdqHHTHT+VLxPb89N7rKz/EQ64Ky/JuQx6+IrnzbrgASDsROHUMBQogMNG4gML8erzSSDTRXEsX0luJZfvFcSRfSW5ll+8U8kR9ktzLL945pIvozFjs9I42kYIuMsVsoBH1vLhbaFpWd2kYu1WUujwIoUKngWdOJkjaNuLfrA36DB4f8AGHnzarVarxJf83FsnQHR2LeYSruhQoVPbJOujPbvC2m/THG8rBExWHFqRLKkgb56ZbIrYwFgzFiWbrDKYm5CKRZF5KKFCmRXHFp8UfmKSJ4zp+1VLHQtMJPN6yWllDarqMdEk16G6uo7WIyyX97JezGR+2CdoW2IpFkXkooUKFFVYaaTGW702EU/X+DNLgR/uLC2y/aG3ihGoxQoUKuLmO2jMkmRyMl6+z3xTNE21trpJvShQoUKFChQoUKFChV9lIbMaN3ey3b85P0g69RBkWT0khnjlHsFDoKFChQoVcXkNsNyXmekk9sBJJ2f2AkHYiyM8fzHl0P3TI27UtzC3wJo6N1Avy2UtUqXPxj/ABz5i6l9ASSdnv8A/8QALxEAAQEFBQcEAwEBAAAAAAAAAQACESAxQRAhMFGhYXGBkbHR4RIiwfADMkJS8f/aAAgBAgEJPwCMPK9o1RJ0+80wOvVACxkHgvxjp0RLOv3mvcNUHHFDyjwQdhMvCL9h+Cg44Us0L88YX0NULqGhwLmUHCJvlf0TJPLuvxnmmCOSadvReNkIeFeyZH4MUqoXCAuCD9pkmnxFx2IeoZ1RfAHgqVDBNTrDLLCLirm+u7tBOm9C8W8MMRTX7jXbBW4/BsqqQSEopIXKURcQuOw2yKmFSCZ6RSTeiNEHxyau407QSaGo+hVw5i0XGcdRrW3+T1u7QZRS+V7hqqi2RVIqHrbkdL4KuinWzIwVA7RVHQ+baiDOGQvtyMGXyYv8nqMQF5TJ07oHTut0FLuUVB1Pi2gOAyCUwEyLCsk0g5rRSTSHqa2wVLuX/bcutypHQ23FNFG5NFEqSopmCYF++tv9HQfQqwUtkcHeYP1ZvPxBJkO41ilaXouRei5NIuTSLkb7Q8lTmd9tPoUzZWGeKPeZDLzAbhed/iCcE0MIPJV7eg8wfsZfdimcEPCPBB0ftGvJC/OsBuC4DIRSiDwg7cm9E3p5TenlPP3YmQIS4K5kSH2uDccsa9rLvkjwoMO8ao4TTuvJD0jOvjHL96Zcmk2OYTQ5pscwm+SZJ33d0fSNneeD/8QALBEAAgIABgEEAgIBBQAAAAAAAgMBBAAFBhAREiATFCEyIjAWMTMVIzRBQv/aAAgBAwEBCADzY0FD2OzqOsv4W7Ulo/ozM7bPtLTL7YFrB+q8ytr+qNQ2R+9fPqzPgwYLI7B+xjBWMkd7UsRyFZ9ltguzdo3jaNkWGoLsunn4l+NgDE4gh/TmGZJohyd/Mn3S5ZGI3jwjeMc4pZg6oXIU7yrYdg882zYKAcQ97HsljNo2iJmeIRlNx3yK9NWZ+38YZgtNPj6tyS4vBrNc8HvETOEMJBQYUL4Wx8szzEKCZMnvZYZLGYjEYACMoEaOmzPgrFajXrRwrxYoGj1O3p9Z/kixWbWLqwRmcRER/WFNNJwYUrg2l943YwVBJnmeYHefLJjEbUaLbrOi8vytNEfw/S5C3h0ZmGWHV/Id6NwqrYOAMTGCHbVGYdYiqG9Gky66FBTpqpqha/HuPbr5EMFHE5pl01i7hzjnbI7fMSgsOaKVywrVgrLiaUbCMlMDGUZcNFEDPi+ThRSHdnqd8Jk5WMn4tWLQkDuVSqtlc7IcSWQwVnDAgx1Xb9GpCoifjfTNH1XS8vFnbrPSNTtApFnrEWaxclWe0mFA+edVPWR3jfIn+pX6Tqyx6lyF4CfjjEYjGUVfa1ADz1DWhNrvGHxyssaVzuXx7R/jMRMcTcR7d5L25xkLutiQxm7fVvNLAzxOIxl6PXtLX5alzxuXSsEZdq6tYmAfqdXKAZtZnhU4Q867RaFOyNpAOHx1Arq4T3y9np2QLDy7tItgL/rGm19r4z5Z1e97dNsK+441FHNKZ2vH8QG2kHSzL+s+Oog5UBbrLqcTvGNKFzdnx1Fe9nQMowr7jjUZcUuMMZCx7SZyZSU40WPFE58tQ/8AGjweHRpDtGNLs65gMeOosmtZmQQr+F3cBoy6JRM6stgpYLlzibPM7aarTXy5cT46jPhIDjnHOFR2YI4zlXpX2jiMRjK3+hcWzwze/aVcMA/1S5heaW4OJKJ5jmCUBT2kYj+UcYuZNStxMMraMgLXZtrOatQ5UbdUqj/HWO/m/MksIWEBG2o28uBe+Wr9S2scaur+nbFu0bZVb93UBu+pE9Lffepn9qsELx/KLOIOYzD3+P5RZwep7RDwJmTCkip1isvFQpSCVwsN79j3Fg2b6eT3sSeNVVPWpepGI20pf9Nk1j21BSmxW7jEc/1/WIjnExxtMTH94mJj+9M0p5KyW+d3Pb15GOcc7ZBX9Kt3lixaEgV2qVSwaSjZbCWUGOVZiN+vDI2TTQiZldmhWtf5a1CvV/xWaNe1H+7Wy+tV+VWaSLMcNrZdWqzyqxTRZjhq1isYANjMVjJFmN2bj5PHOOcVa82HCoQCAGBHGrMt9RcWgjaMZXmLKDvUGraVaVDVfrmeMZ1m3uJ9FXOOdtPUegTYLYwExkSzjLCy+xIbRtlmaOy9nYKGYovL7q/S1oKGTPNs8KzypMFzvldArruuBGBiBjfMsvXfRKjt1G1GypsboexBwa8v1UM8BaRZTYHsrxIoGOSu6irI/FVzMH3C5bztBYrVmWWQtdKmFNULDxzbKVZirgrdRtRsqb4LYai7AjUV5XxK9Wsj7xq0cFqyf/LtS3D+r7b7E8txG9Wq20yFry7Ll0V9R87+XIvL6NzPJbFAuS8Y8I2jEYy7KH3Z5inSTTX0V+khgo4nMdLKbyda3l9inPDt48I2qULFueFUNOKTwb4iIjiP2EMFHBWtOUn/ADD9JuH5UzIb6/7KhaCfy9q/AULR/VWRXmYRpZs/La2QU0fMiMDHEef/xAAvEQABAQQGCgIDAQAAAAAAAAABAAIRMUEgIVFxkdEDEDBhgaGxweHwEjIiQvFS/9oACAEDAQk/AKZcN6e0cB7wQDPPrktIcXdE0TqaI4rSHr1QDXL3BfieSLxtS4BB+89hngmiTsmnIO3jui8bKMhMo1SEhtjVZJRmLNhW2YDud3VF5NJgu31dU0BjktIME2DimX3IOO+iXFVNCIpRMBaUXk0A8lFwsEUyB1xpB43o/E2SzQcaBcQozFAuAUJCwUBeZBB7UzPxsg8KtnpfQhNQOsxrPYd8KHE2BDzSNdKC+p5UJVjVAB6iTriV9jHLhSi4uvRPyfxeouD76QeCuF2uSgVFs8hWe1AVMwv8ZUoyWirG92aLmPkC5NuJtDvFOLPSdCLPRQZHM15UIxN59dTg1Xxnnx1n8h9TaLLx0upyP81/sOnpVpGFXbXMjCdJ3yNZfZ57IfBrEYy44qRdiPGsuLJeFBoA0pjprtHOpTJ1yBPJ3elB7hcM48VarRQ/Ukd+9K3t4120P8nqKJ/Jqoccg/VapkUP9HoKVo6GhInrrmCO/ai0Ayza+JuBTbOJyTbOJyRm/tQia8YcnUpntrmQrSca++uRGBqNDSEAOnuC0pxWlLr9QBK/32WjD7RUcQm36MQEzuPte5PeLAmCb6s018NHun7gi91uuQ6/zXb0rUGhzHh1CLq7xHX+wHKrW5oCD0wzzzX2e90s0wzzzTIGOaLyVM/1BwFCBNV0tf6jr6VFgv4QOfCgamqxf5HTWK2a+E8+GxuHfLGh9mqs6EWq+ElA1KR/hw1lxFajMWH2GtgAncmAeuKYA64xTAPXGKYAPPEpkH22KYANsTiUyCg4DWXAKErtc1AahWzUbreHsKFYmLR7BF4O1P4iO/xQFZhd51h4K+prB3WXihWDEW+d6N4mNkXAKpjmfFD6iPu9QFDgbCg4j19BpxCDt47jLBNAjdSLgvzPLHJGqyQoCsribTSqaED7JBxHtVEkHcmvleP4Vowbi7NaLn4Wi5+E5m4ZvTZNEPKrJifZbAXGYuQezaO9m2qZtytQzOyDwj8TZLwmSN8sdky/fLFH5GyXn2rbB4TPxO7KCbBvqzWjfc4rRtYFMHArRtYFaN17gmwLq8kz8jvyhsf/2Q==;" vertex="1" parent="1">
                    <mxGeometry x="800" y="-140" width="140" height="140" as="geometry"/>
                </mxCell>
                <mxCell id="28" value="&lt;div style=&quot;background-color: rgb(255 , 255 , 255) ; font-family: &amp;#34;droid sans mono&amp;#34; , monospace , monospace , &amp;#34;droid sans fallback&amp;#34; ; font-size: 14px ; line-height: 19px&quot;&gt;{&lt;/div&gt;&lt;blockquote style=&quot;margin: 0 0 0 40px ; border: none ; padding: 0px&quot;&gt;&lt;div style=&quot;background-color: rgb(255 , 255 , 255) ; font-family: &amp;#34;droid sans mono&amp;#34; , monospace , monospace , &amp;#34;droid sans fallback&amp;#34; ; font-size: 14px ; line-height: 19px&quot;&gt;&lt;span style=&quot;color: rgb(4 , 81 , 165)&quot;&gt;&quot;name&quot;&lt;/span&gt;: &lt;span style=&quot;color: rgb(163 , 21 , 21)&quot;&gt;&quot;000073&quot;&lt;/span&gt;,&amp;nbsp;&lt;/div&gt;&lt;div style=&quot;background-color: rgb(255 , 255 , 255) ; font-family: &amp;#34;droid sans mono&amp;#34; , monospace , monospace , &amp;#34;droid sans fallback&amp;#34; ; font-size: 14px ; line-height: 19px&quot;&gt;&lt;span style=&quot;color: #0451a5&quot;&gt;&quot;description&quot;&lt;/span&gt;: &lt;span style=&quot;color: #a31515&quot;&gt;&quot;description&quot;&lt;/span&gt;,&amp;nbsp;&lt;/div&gt;&lt;div style=&quot;background-color: rgb(255 , 255 , 255) ; font-family: &amp;#34;droid sans mono&amp;#34; , monospace , monospace , &amp;#34;droid sans fallback&amp;#34; ; font-size: 14px ; line-height: 19px&quot;&gt;&lt;span style=&quot;color: #0451a5&quot;&gt;&quot;image&quot;&lt;/span&gt;: &lt;span style=&quot;color: #a31515&quot;&gt;&quot;https://ipfs.io/ipfs/QmYLvZCSHSXrz9EHmoDWJVQekgjGdXybcbsyUSWREGBrPE&quot;&lt;/span&gt;&lt;/div&gt;&lt;/blockquote&gt;&lt;span style=&quot;background-color: rgb(255 , 255 , 255) ; font-family: &amp;#34;droid sans mono&amp;#34; , monospace , monospace , &amp;#34;droid sans fallback&amp;#34; ; font-size: 14px&quot;&gt;}&lt;/span&gt;" style="rounded=1;whiteSpace=wrap;html=1;align=left;" vertex="1" parent="1">
                    <mxGeometry x="530" y="260" width="640" height="140" as="geometry"/>
                </mxCell>
                <mxCell id="30" value="&lt;div style=&quot;background-color: rgb(255 , 255 , 255) ; font-family: &amp;#34;droid sans mono&amp;#34; , monospace , monospace , &amp;#34;droid sans fallback&amp;#34; ; font-size: 14px ; line-height: 19px&quot;&gt;{&lt;/div&gt;&lt;blockquote style=&quot;margin: 0 0 0 40px ; border: none ; padding: 0px&quot;&gt;&lt;div style=&quot;background-color: rgb(255 , 255 , 255) ; font-family: &amp;#34;droid sans mono&amp;#34; , monospace , monospace , &amp;#34;droid sans fallback&amp;#34; ; font-size: 14px ; line-height: 19px&quot;&gt;&lt;span style=&quot;color: rgb(4 , 81 , 165)&quot;&gt;&quot;name&quot;&lt;/span&gt;: &lt;span style=&quot;color: rgb(163 , 21 , 21)&quot;&gt;&quot;000073&quot;&lt;/span&gt;,&amp;nbsp;&lt;/div&gt;&lt;div style=&quot;background-color: rgb(255 , 255 , 255) ; font-family: &amp;#34;droid sans mono&amp;#34; , monospace , monospace , &amp;#34;droid sans fallback&amp;#34; ; font-size: 14px ; line-height: 19px&quot;&gt;&lt;span style=&quot;color: #0451a5&quot;&gt;&quot;description&quot;&lt;/span&gt;: &lt;span style=&quot;color: #a31515&quot;&gt;&quot;description&quot;&lt;/span&gt;,&amp;nbsp;&lt;/div&gt;&lt;div style=&quot;background-color: rgb(255 , 255 , 255) ; font-family: &amp;#34;droid sans mono&amp;#34; , monospace , monospace , &amp;#34;droid sans fallback&amp;#34; ; font-size: 14px ; line-height: 19px&quot;&gt;&lt;span style=&quot;color: #0451a5&quot;&gt;&quot;image&quot;&lt;/span&gt;: &lt;span style=&quot;color: #a31515&quot;&gt;&quot;https://ipfs.io/ipfs/QmYLvZCSHSXrz9EHmoDWJVQekgjGdXybcbsyUSWREGBrPE&quot;&lt;/span&gt;&lt;/div&gt;&lt;/blockquote&gt;&lt;span style=&quot;background-color: rgb(255 , 255 , 255) ; font-family: &amp;#34;droid sans mono&amp;#34; , monospace , monospace , &amp;#34;droid sans fallback&amp;#34; ; font-size: 14px&quot;&gt;}&lt;/span&gt;" style="rounded=1;whiteSpace=wrap;html=1;align=left;" vertex="1" parent="1">
                    <mxGeometry x="530" y="470" width="640" height="140" as="geometry"/>
                </mxCell>
                <mxCell id="31" value="&lt;div style=&quot;background-color: rgb(255 , 255 , 255) ; font-family: &amp;#34;droid sans mono&amp;#34; , monospace , monospace , &amp;#34;droid sans fallback&amp;#34; ; font-size: 14px ; line-height: 19px&quot;&gt;{&lt;/div&gt;&lt;blockquote style=&quot;margin: 0 0 0 40px ; border: none ; padding: 0px&quot;&gt;&lt;div style=&quot;background-color: rgb(255 , 255 , 255) ; font-family: &amp;#34;droid sans mono&amp;#34; , monospace , monospace , &amp;#34;droid sans fallback&amp;#34; ; font-size: 14px ; line-height: 19px&quot;&gt;&lt;span style=&quot;color: rgb(4 , 81 , 165)&quot;&gt;&quot;name&quot;&lt;/span&gt;: &lt;span style=&quot;color: rgb(163 , 21 , 21)&quot;&gt;&quot;000073&quot;&lt;/span&gt;,&amp;nbsp;&lt;/div&gt;&lt;div style=&quot;background-color: rgb(255 , 255 , 255) ; font-family: &amp;#34;droid sans mono&amp;#34; , monospace , monospace , &amp;#34;droid sans fallback&amp;#34; ; font-size: 14px ; line-height: 19px&quot;&gt;&lt;span style=&quot;color: #0451a5&quot;&gt;&quot;description&quot;&lt;/span&gt;: &lt;span style=&quot;color: #a31515&quot;&gt;&quot;description&quot;&lt;/span&gt;,&amp;nbsp;&lt;/div&gt;&lt;div style=&quot;background-color: rgb(255 , 255 , 255) ; font-family: &amp;#34;droid sans mono&amp;#34; , monospace , monospace , &amp;#34;droid sans fallback&amp;#34; ; font-size: 14px ; line-height: 19px&quot;&gt;&lt;span style=&quot;color: #0451a5&quot;&gt;&quot;image&quot;&lt;/span&gt;: &lt;span style=&quot;color: #a31515&quot;&gt;&quot;https://ipfs.io/ipfs/QmYLvZCSHSXrz9EHmoDWJVQekgjGdXybcbsyUSWREGBrPE&quot;&lt;/span&gt;&lt;/div&gt;&lt;/blockquote&gt;&lt;span style=&quot;background-color: rgb(255 , 255 , 255) ; font-family: &amp;#34;droid sans mono&amp;#34; , monospace , monospace , &amp;#34;droid sans fallback&amp;#34; ; font-size: 14px&quot;&gt;}&lt;/span&gt;" style="rounded=1;whiteSpace=wrap;html=1;align=left;" vertex="1" parent="1">
                    <mxGeometry x="530" y="690" width="640" height="140" as="geometry"/>
                </mxCell>
                <mxCell id="32" value="&lt;div style=&quot;background-color: rgb(255 , 255 , 255) ; font-family: &amp;#34;droid sans mono&amp;#34; , monospace , monospace , &amp;#34;droid sans fallback&amp;#34; ; font-size: 14px ; line-height: 19px&quot;&gt;{&lt;/div&gt;&lt;blockquote style=&quot;margin: 0 0 0 40px ; border: none ; padding: 0px&quot;&gt;&lt;div style=&quot;background-color: rgb(255 , 255 , 255) ; font-family: &amp;#34;droid sans mono&amp;#34; , monospace , monospace , &amp;#34;droid sans fallback&amp;#34; ; font-size: 14px ; line-height: 19px&quot;&gt;&lt;span style=&quot;color: rgb(4 , 81 , 165)&quot;&gt;&quot;name&quot;&lt;/span&gt;: &lt;span style=&quot;color: rgb(163 , 21 , 21)&quot;&gt;&quot;000073&quot;&lt;/span&gt;,&amp;nbsp;&lt;/div&gt;&lt;div style=&quot;background-color: rgb(255 , 255 , 255) ; font-family: &amp;#34;droid sans mono&amp;#34; , monospace , monospace , &amp;#34;droid sans fallback&amp;#34; ; font-size: 14px ; line-height: 19px&quot;&gt;&lt;span style=&quot;color: #0451a5&quot;&gt;&quot;description&quot;&lt;/span&gt;: &lt;span style=&quot;color: #a31515&quot;&gt;&quot;description&quot;&lt;/span&gt;,&amp;nbsp;&lt;/div&gt;&lt;div style=&quot;background-color: rgb(255 , 255 , 255) ; font-family: &amp;#34;droid sans mono&amp;#34; , monospace , monospace , &amp;#34;droid sans fallback&amp;#34; ; font-size: 14px ; line-height: 19px&quot;&gt;&lt;span style=&quot;color: #0451a5&quot;&gt;&quot;image&quot;&lt;/span&gt;: &lt;span style=&quot;color: #a31515&quot;&gt;&quot;https://ipfs.io/ipfs/QmYLvZCSHSXrz9EHmoDWJVQekgjGdXybcbsyUSWREGBrPE&quot;&lt;/span&gt;&lt;/div&gt;&lt;/blockquote&gt;&lt;span style=&quot;background-color: rgb(255 , 255 , 255) ; font-family: &amp;#34;droid sans mono&amp;#34; , monospace , monospace , &amp;#34;droid sans fallback&amp;#34; ; font-size: 14px&quot;&gt;}&lt;/span&gt;" style="rounded=1;whiteSpace=wrap;html=1;align=left;" vertex="1" parent="1">
                    <mxGeometry x="530" y="940" width="640" height="140" as="geometry"/>
                </mxCell>
                <mxCell id="36" value="&lt;div style=&quot;background-color: rgb(255 , 255 , 255) ; font-family: &amp;#34;droid sans mono&amp;#34; , monospace , monospace , &amp;#34;droid sans fallback&amp;#34; ; font-size: 14px ; line-height: 19px&quot;&gt;{&lt;/div&gt;&lt;blockquote style=&quot;margin: 0 0 0 40px ; border: none ; padding: 0px&quot;&gt;&lt;div style=&quot;background-color: rgb(255 , 255 , 255) ; font-family: &amp;#34;droid sans mono&amp;#34; , monospace , monospace , &amp;#34;droid sans fallback&amp;#34; ; font-size: 14px ; line-height: 19px&quot;&gt;&lt;span style=&quot;color: rgb(4 , 81 , 165)&quot;&gt;&quot;name&quot;&lt;/span&gt;: &lt;span style=&quot;color: rgb(163 , 21 , 21)&quot;&gt;&quot;000073&quot;&lt;/span&gt;,&amp;nbsp;&lt;/div&gt;&lt;div style=&quot;background-color: rgb(255 , 255 , 255) ; font-family: &amp;#34;droid sans mono&amp;#34; , monospace , monospace , &amp;#34;droid sans fallback&amp;#34; ; font-size: 14px ; line-height: 19px&quot;&gt;&lt;span style=&quot;color: #0451a5&quot;&gt;&quot;description&quot;&lt;/span&gt;: &lt;span style=&quot;color: #a31515&quot;&gt;&quot;description&quot;&lt;/span&gt;,&amp;nbsp;&lt;/div&gt;&lt;div style=&quot;background-color: rgb(255 , 255 , 255) ; font-family: &amp;#34;droid sans mono&amp;#34; , monospace , monospace , &amp;#34;droid sans fallback&amp;#34; ; font-size: 14px ; line-height: 19px&quot;&gt;&lt;span style=&quot;color: #0451a5&quot;&gt;&quot;image&quot;&lt;/span&gt;: &lt;span style=&quot;color: #a31515&quot;&gt;&quot;https://ipfs.io/ipfs/QmYLvZCSHSXrz9EHmoDWJVQekgjGdXybcbsyUSWREGBrPE&quot;&lt;/span&gt;&lt;/div&gt;&lt;/blockquote&gt;&lt;span style=&quot;background-color: rgb(255 , 255 , 255) ; font-family: &amp;#34;droid sans mono&amp;#34; , monospace , monospace , &amp;#34;droid sans fallback&amp;#34; ; font-size: 14px&quot;&gt;}&lt;/span&gt;" style="rounded=1;whiteSpace=wrap;html=1;align=left;" vertex="1" parent="1">
                    <mxGeometry x="530" y="1260" width="640" height="140" as="geometry"/>
                </mxCell>
                <mxCell id="38" value="&lt;b&gt;1.json&lt;/b&gt;&lt;b&gt;&lt;br&gt;&lt;/b&gt;" style="text;html=1;strokeColor=none;fillColor=none;align=center;verticalAlign=middle;whiteSpace=wrap;rounded=0;" vertex="1" parent="1">
                    <mxGeometry x="540" y="230" width="40" height="20" as="geometry"/>
                </mxCell>
                <mxCell id="39" value="&lt;b&gt;5.json&lt;/b&gt;&lt;b&gt;&lt;br&gt;&lt;/b&gt;" style="text;html=1;strokeColor=none;fillColor=none;align=center;verticalAlign=middle;whiteSpace=wrap;rounded=0;" vertex="1" parent="1">
                    <mxGeometry x="540" y="920" width="40" height="20" as="geometry"/>
                </mxCell>
                <mxCell id="41" value="&lt;b&gt;4.json&lt;/b&gt;&lt;b&gt;&lt;br&gt;&lt;/b&gt;" style="text;html=1;strokeColor=none;fillColor=none;align=center;verticalAlign=middle;whiteSpace=wrap;rounded=0;" vertex="1" parent="1">
                    <mxGeometry x="540" y="656" width="40" height="20" as="geometry"/>
                </mxCell>
                <mxCell id="42" value="&lt;b&gt;3.json&lt;/b&gt;&lt;b&gt;&lt;br&gt;&lt;/b&gt;" style="text;html=1;strokeColor=none;fillColor=none;align=center;verticalAlign=middle;whiteSpace=wrap;rounded=0;" vertex="1" parent="1">
                    <mxGeometry x="540" y="440" width="40" height="20" as="geometry"/>
                </mxCell>
                <mxCell id="43" value="&lt;b&gt;10,000.json&lt;/b&gt;&lt;b&gt;&lt;br&gt;&lt;/b&gt;" style="text;html=1;strokeColor=none;fillColor=none;align=center;verticalAlign=middle;whiteSpace=wrap;rounded=0;" vertex="1" parent="1">
                    <mxGeometry x="550" y="1240" width="40" height="20" as="geometry"/>
                </mxCell>
            </root>
        </mxGraphModel>
    </diagram>
</mxfile>